Coordinates
version=1
nRows=12
nColumns=33
inDegrees=yes

Units are S.I. units (second, meters, Newtons, ...)
Angles are in degrees.

endheader
time	ground_thorax_rot_x	ground_thorax_rot_y	ground_thorax_rot_z	ground_thorax_tx	ground_thorax_ty	ground_thorax_tz	clav_prot_r	clav_elev_r	scapula_abduction_r	scapula_elevation_r	scapula_upward_rot_r	scapula_winging_r	shoulder_elv_r	plane_of_elev_r	axial_rot_r	elbow_flexion_r	pro_sup_r	wrist_flex_r	wrist_dev_r	clav_prot_l	clav_elev_l	scapula_abduction_l	scapula_elevation_l	scapula_upward_rot_l	scapula_winging_l	shoulder_elv_l	plane_of_elev_l	axial_rot_l	elbow_flexion_l	pro_sup_l	wrist_flex_l	wrist_dev_l
      6.33000000	     30.41188573	     29.51213363	     36.99365299	    -23.36825424	    785.03273912	    -40.27946376	     12.75884255	     35.48542831	     26.50017762	     45.00000000	    -45.00000000	  -1883.68383326	  -1549.37378181	    158.82512528	     17.46596533	      0.37893561	    164.54238433	     12.09095593	     14.21121255	    -10.52364630	    -45.00000000	    -37.73737939	     45.00000000	    -45.00000000	  -3139.64312469	     88.66231605	     16.53349276	   -179.99999979	    730.90651522	    208.40259601	     11.40290574	    -13.94210523
      6.34000000	     30.32192464	     29.47020402	     37.02167907	    -26.46717132	    786.41637654	    -40.38626344	     12.88592084	     35.29343552	     26.36720687	     45.00000000	    -45.00000000	  -1883.74316458	  -1549.22463558	    158.95823790	     17.26842778	      0.37405601	    164.29674467	     12.07340131	     14.22919583	    -10.34953905	    -45.00000000	    -37.74632520	     45.00000000	    -45.00000000	  -3139.39013055	     88.85200362	     16.63251533	   -179.99999979	    731.00757608	    208.09956269	     11.43828312	    -13.87921009
      6.35000000	     30.36327280	     29.29808936	     36.78570905	    -29.55206638	    787.82234374	    -40.49895203	     12.83410668	     35.30407279	     26.29276358	     45.00000000	    -45.00000000	  -1884.03123040	  -1549.22999071	    158.77831273	     17.15369333	      0.39146143	    164.02772242	     12.05612279	     14.31099498	    -10.24363869	    -45.00000000	    -37.81826797	     45.00000000	    -45.00000000	  -3139.20202528	     88.96129226	     16.74222150	   -179.99999979	    731.00925831	    207.78558077	     11.50948576	    -13.87840299
      6.36000000	     30.23484533	     29.20351790	     36.84891636	    -32.61271019	    789.24595740	    -40.61596553	     12.98123109	     35.09576684	     26.25630286	     45.00000000	    -45.00000000	  -1884.05439141	  -1549.08806955	    159.01024711	     17.11810677	      0.37174142	    163.71253028	     12.01975343	     14.36702787	    -10.07790532	    -45.00000000	    -37.97824756	     45.00000000	    -45.00000000	  -3138.93965824	     89.09186247	     16.78985284	   -179.99999979	    731.16905597	    207.45506567	     11.54563094	    -13.79920405
      6.37000000	     30.28831427	     28.97741544	     36.62718156	    -35.64908267	    790.68700608	    -40.73466897	     12.89515381	     35.11849150	     26.17288346	     45.00000000	    -45.00000000	  -1884.20828908	  -1549.00235576	    158.93989701	     17.04594274	      0.31966583	    163.36170256	     12.02371492	     14.38825370	     -9.96510427	    -45.00000000	    -37.96143317	     45.00000000	    -45.00000000	  -3138.81003588	     89.23087774	     16.81233373	   -179.99999979	    731.12222904	    207.12730657	     11.60104785	    -13.81138849
      6.38000000	     30.26142312	     28.75439240	     36.47963859	    -38.65105392	    792.14090708	    -40.85282801	     12.87857939	     35.08635483	     26.13333621	     45.00000000	    -45.00000000	  -1884.38130950	  -1548.98063715	    158.92364787	     16.99318722	      0.25844200	    163.00278408	     12.01436308	     14.46570147	     -9.82528738	    -45.00000000	    -38.09933444	     45.00000000	    -45.00000000	  -3138.62123924	     89.36329954	     16.86778495	   -179.99999979	    731.17055554	    206.79928579	     11.65265874	    -13.79735341
      6.39000000	     30.23805351	     28.59974781	     36.34944765	    -41.61420196	    793.60667046	    -40.96904025	     12.93514028	     34.92929399	     26.06398730	     45.00000000	    -45.00000000	  -1884.55955194	  -1548.90789770	    158.94308414	     16.99004842	      0.23475382	    162.58291381	     11.97737424	     14.53138561	     -9.68450112	    -45.00000000	    -38.20625106	     45.00000000	    -45.00000000	  -3138.41910951	     89.45417705	     16.95779107	   -179.99999979	    731.17510691	    206.44866807	     11.71074752	    -13.79881869
      6.40000000	     30.29074755	     28.28369961	     36.11130724	    -44.54168413	    795.08833979	    -41.08456254	     12.76400550	     35.05335785	     26.00212624	     45.00000000	    -45.00000000	  -1884.75567337	  -1548.85225545	    158.81719204	     16.96768631	      0.14098545	    162.19223556	     11.99589817	     14.58294598	     -9.57183844	    -45.00000000	    -38.20928830	     45.00000000	    -45.00000000	  -3138.28010663	     89.60041214	     16.95511415	   -179.99999979	    731.05553276	    206.10089740	     11.75347081	    -13.85676260
      6.41000000	     30.28161195	     28.11760065	     35.95899278	    -47.43379108	    796.59006997	    -41.20103647	     12.80946471	     34.92262034	     25.93216157	     45.00000000	    -45.00000000	  -1884.84271178	  -1548.75320432	    158.89843403	     17.04877092	      0.17377554	    161.77154557	     11.94849793	     14.62495261	     -9.41103007	    -45.00000000	    -38.33521526	     45.00000000	    -45.00000000	  -3138.14680003	     89.68583690	     17.02817447	   -179.99999979	    731.14047991	    205.75519281	     11.81905990	    -13.84569964
      6.42000000	     30.23469796	     27.91014652	     35.81549699	    -50.29370950	    798.11639007	    -41.32090940	     12.87411608	     34.80194229	     25.86070516	     45.00000000	    -45.00000000	  -1885.01656524	  -1548.73042855	    158.91260600	     17.16998175	      0.10892150	    161.26836924	     11.90962782	     14.71553274	     -9.29192643	    -45.00000000	    -38.52251073	     45.00000000	    -45.00000000	  -3137.96278104	     89.77880694	     17.10121537	   -179.99999979	    731.16998822	    205.39896737	     11.88235387	    -13.86200793
      6.43000000	     30.30119354	     27.62560675	     35.58127958	    -53.12348294	    799.67115157	    -41.44558171	     12.68121374	     34.93740869	     25.85435443	     45.00000000	    -45.00000000	  -1885.17215229	  -1548.69199922	    158.89863922	     17.15356546	      0.09635601	    160.81044056	     11.89992003	     14.75676753	     -9.19036643	    -45.00000000	    -38.48629947	     45.00000000	    -45.00000000	  -3137.85777416	     89.91273256	     17.09564893	   -179.99999979	    731.02288215	    205.05775499	     11.92494806	    -13.95081006
      6.44000000	     30.28046652	     27.42637869	     35.45902163	    -55.91913944	    801.25325953	    -41.57574501	     12.79719144	     34.77044790	     25.74914015	     45.00000000	    -45.00000000	  -1885.30473860	  -1548.58323913	    158.92418462	     17.37025843	      0.04557773	    160.29507243	     11.85474495	     14.81379051	     -9.04687549	    -45.00000000	    -38.66590276	     45.00000000	    -45.00000000	  -3137.69692467	     89.98629328	     17.17310787	   -179.99999979	    731.10090264	    204.71032563	     11.99846359	    -13.96257899
